<?xml version="1.0" encoding="utf-8"?><!DOCTYPE svg PUBLIC "-//W3C//DTD SVG 1.1//EN" "http://www.w3.org/Graphics/SVG/1.1/DTD/svg11.dtd"><svg version="1.1" xmlns="http://www.w3.org/2000/svg" xmlns:xlink="http://www.w3.org/1999/xlink" width="20" height="20" viewBox="0 0 20 20" data-tags="google+-with-circle"><g fill="#444" transform="scale(0.01953125 0.01953125)"><path d="M512 20.48c-271.462 0-491.52 220.058-491.52 491.52s220.058 491.52 491.52 491.52 491.52-220.058 491.52-491.52-220.058-491.52-491.52-491.52zM483.686 722.995c-30.874 15.002-64.102 16.589-76.954 16.589-2.458 0-3.84 0-3.84 0s-1.178 0-2.765 0c-20.070 0-119.962-4.608-119.962-95.59 0-89.395 108.8-96.41 142.131-96.41h0.87c-19.251-25.702-15.258-51.61-15.258-51.61-1.69 0.102-4.147 0.205-7.168 0.205-12.544 0-36.762-1.997-57.549-15.411-25.498-16.384-38.4-44.288-38.4-82.893 0-109.107 119.142-113.51 120.32-113.613h118.989v2.611c0 13.312-23.91 15.923-40.192 18.125-5.53 0.819-16.64 1.894-19.763 3.482 30.157 16.128 35.021 41.421 35.021 79.104 0 42.906-16.794 65.587-34.611 81.51-11.059 9.882-19.712 17.613-19.712 28.006 0 10.189 11.878 20.582 25.702 32.717 22.579 19.917 53.555 47.002 53.555 92.723 0 47.258-20.326 81.050-60.416 100.454zM742.4 512h-76.8v76.8h-51.2v-76.8h-76.8v-51.2h76.8v-76.8h51.2v76.8h76.8v51.2zM421.018 570.88c-2.662 0-5.325 0.102-8.038 0.307-22.733 1.69-43.725 10.189-58.88 24.013-15.053 13.619-22.733 30.822-21.658 48.179 2.304 36.403 41.37 57.702 88.832 54.323 46.694-3.379 77.824-30.31 75.571-66.714-2.15-34.202-31.898-60.109-75.827-60.109zM465.766 372.992c-12.39-43.52-32.358-56.422-63.386-56.422-3.328 0-6.707 0.512-9.933 1.382-13.466 3.84-24.166 15.053-30.106 31.744-6.093 16.896-6.451 34.509-1.229 54.579 9.472 35.891 34.97 61.901 60.672 61.901 3.379 0 6.758-0.41 9.933-1.382 28.109-7.885 45.722-50.79 34.048-91.802z" /></g></svg>